<?xml version="1.0" encoding="UTF-8" standalone="no"?>
<!DOCTYPE svg PUBLIC "-//W3C//DTD SVG 1.1//EN" "http://www.w3.org/Graphics/SVG/1.1/DTD/svg11.dtd">
<svg width="100%" height="100%" viewBox="0 0 411 384" version="1.1" xmlns="http://www.w3.org/2000/svg" xmlns:xlink="http://www.w3.org/1999/xlink" xml:space="preserve" xmlns:serif="http://www.serif.com/" style="fill-rule:evenodd;clip-rule:evenodd;stroke-linejoin:round;stroke-miterlimit:2;">
    <g transform="matrix(1,0,0,1,-1171,-5887)">
        <g transform="matrix(1,0,0,3.36655,0,0)">
            <g transform="matrix(1.53023,0,0,0.758001,-1632.69,1493.26)">
                <g transform="matrix(0.589172,0.611933,-0.247213,0.0855876,-1093.62,-2995.67)">
                    <path d="M5599.08,633.076C5601.68,633.076 5604.07,627.358 5605.37,618.076C5609.09,591.484 5616.91,535.609 5621.77,500.857C5622.63,494.669 5622.63,487.046 5621.77,480.857C5620.9,474.669 5619.3,470.858 5617.57,470.857C5595.19,470.857 5534.64,470.857 5518.15,470.857C5515.55,470.857 5513.15,476.575 5511.85,485.858C5508.13,512.45 5500.32,568.325 5495.46,603.076C5494.59,609.264 5494.59,616.888 5495.46,623.076C5496.32,629.264 5497.92,633.076 5499.65,633.076C5522.04,633.076 5582.59,633.076 5599.08,633.076Z" style="fill:rgb(155,81,85);"/>
                </g>
                <g transform="matrix(0.570913,0,0,0.342351,-1487.04,89.8959)">
                    <path d="M5920.07,756.501C5918.28,753.407 5914.98,751.501 5911.4,751.501C5907.83,751.501 5904.53,753.407 5902.74,756.501C5883.06,790.601 5835.12,873.622 5815.44,907.722C5813.65,910.816 5813.65,914.628 5815.44,917.722C5817.22,920.816 5820.52,922.722 5824.1,922.722C5863.47,922.722 5959.34,922.722 5998.71,922.722C6002.28,922.722 6005.59,920.816 6007.37,917.722C6009.16,914.628 6009.16,910.816 6007.37,907.722C5987.69,873.622 5939.75,790.601 5920.07,756.501Z" style="fill:rgb(206,94,100);"/>
                </g>
                <g transform="matrix(0.570913,0,0,0.342351,-1408.51,171.451)">
                    <path d="M5815.44,907.722C5813.65,910.816 5813.65,914.628 5815.44,917.722C5817.22,920.816 5820.52,922.722 5824.1,922.722C5863.47,922.722 5959.34,922.722 5998.71,922.722C6002.28,922.722 6005.59,920.816 6007.37,917.722C6009.16,914.628 6009.16,910.816 6007.37,907.722C5987.68,873.622 5939.75,790.602 5920.07,756.501C5918.28,753.407 5914.98,751.501 5911.4,751.501C5907.83,751.501 5904.53,753.407 5902.74,756.501C5883.06,790.601 5835.12,873.622 5815.44,907.722Z" style="fill:rgb(155,81,85);"/>
                </g>
                <g transform="matrix(-0.570913,-4.19259e-17,6.99167e-17,-0.342351,5262.76,734.694)">
                    <path d="M5998.71,922.722C6002.28,922.722 6005.59,920.816 6007.37,917.722C6009.16,914.628 6009.16,910.816 6007.37,907.722C5987.69,873.622 5939.75,790.601 5920.07,756.501C5918.28,753.407 5914.98,751.501 5911.4,751.501C5907.83,751.501 5904.53,753.407 5902.74,756.501C5883.06,790.601 5835.12,873.622 5815.44,907.722C5813.65,910.816 5813.65,914.628 5815.44,917.722C5817.22,920.816 5820.52,922.722 5824.1,922.722C5863.47,922.722 5959.34,922.722 5998.71,922.722Z" style="fill:rgb(206,94,100);"/>
                </g>
                <g transform="matrix(-0.570913,-4.19259e-17,6.99167e-17,-0.342351,5341.28,653.139)">
                    <path d="M5920.07,756.501C5918.28,753.407 5914.98,751.501 5911.4,751.501C5907.83,751.501 5904.53,753.407 5902.74,756.501C5883.06,790.601 5835.12,873.622 5815.44,907.722C5813.65,910.816 5813.65,914.628 5815.44,917.722C5817.22,920.816 5820.52,922.722 5824.1,922.722C5863.47,922.722 5959.34,922.722 5998.71,922.722C6002.28,922.722 6005.59,920.816 6007.37,917.722C6009.16,914.628 6009.16,910.816 6007.37,907.722C5987.69,873.622 5939.75,790.601 5920.07,756.501Z" style="fill:rgb(206,94,100);"/>
                </g>
            </g>
        </g>
    </g>
</svg>
